<?xml version="1.0" encoding="iso-8859-1"?>
<!-- Uploaded to: SVG Repo, www.svgrepo.com, Generator: SVG Repo Mixer Tools -->
<svg xmlns="http://www.w3.org/2000/svg" xmlns:xlink="http://www.w3.org/1999/xlink" version="1.1" id="Layer_1"  viewBox="0 0 414.62 414.62" xml:space="preserve" width="45" height="45">
<g id="_x32_5._Ruler_2_">
	<g>
		<g id="XMLID_73_">
			<g>
				<g>
					<path style="fill:#F2D59F;" d="M113.16,95.101l31.38,37.41l31.39,37.4l31.38,37.4l31.39,37.4l31.38,37.4l31.38,37.41       l71.41,85.1H41.75V10.001L113.16,95.101z M214.41,330.731l-98.76-117.71v117.71H214.41z"/>
				</g>
			</g>
			<g>
				<g>
					<path style="fill:#5E2A41;" d="M372.87,414.62H41.751c-5.522,0-10-4.478-10-10V10.001c0-4.204,2.629-7.959,6.58-9.397       c3.947-1.439,8.378-0.253,11.08,2.969L380.53,398.192c2.498,2.977,3.045,7.132,1.403,10.654       C380.291,412.368,376.756,414.62,372.87,414.62z M51.751,394.62h299.674L293.8,325.948c-0.001,0-0.001-0.001-0.001-0.001       L51.751,37.476V394.62z"/>
				</g>
				<g>
					<path style="fill:#5E2A41;" d="M214.41,340.731h-98.76c-5.522,0-10-4.478-10-10v-117.71c0-4.204,2.63-7.959,6.58-9.397       c3.948-1.435,8.378-0.251,11.081,2.97l98.76,117.71c2.497,2.978,3.044,7.132,1.401,10.654       C221.831,338.479,218.296,340.731,214.41,340.731z M125.65,320.731h67.317l-67.317-80.233V320.731z"/>
				</g>
				<g>
					<path style="fill:#5E2A41;" d="M88.845,125.511c-2.854,0-5.687-1.215-7.665-3.571c-3.55-4.23-2.999-10.538,1.231-14.089       l24.319-20.41c4.232-3.549,10.538-2.999,14.089,1.231c3.55,4.23,2.999,10.538-1.231,14.089l-24.319,20.41       C93.395,124.743,91.114,125.511,88.845,125.511z"/>
				</g>
				<g>
					<path style="fill:#5E2A41;" d="M131.245,153.671c-2.854,0-5.687-1.215-7.665-3.572c-3.551-4.23-2.998-10.538,1.232-14.088       l13.301-11.16c4.23-3.549,10.539-2.999,14.088,1.232c3.551,4.23,2.998,10.538-1.232,14.088l-13.301,11.16       C135.795,152.903,133.513,153.671,131.245,153.671z"/>
				</g>
				<g>
					<path style="fill:#5E2A41;" d="M151.615,200.311c-2.854,0-5.688-1.215-7.666-3.573c-3.55-4.232-2.997-10.539,1.234-14.088       l24.32-20.4c4.23-3.55,10.539-2.997,14.088,1.234c3.55,4.231,2.997,10.539-1.234,14.088l-24.32,20.4       C156.164,199.543,153.882,200.311,151.615,200.311z"/>
				</g>
				<g>
					<path style="fill:#5E2A41;" d="M194.005,228.471c-2.855,0-5.689-1.216-7.668-3.575c-3.548-4.231-2.994-10.539,1.238-14.088       l13.31-11.16c4.229-3.548,10.537-2.995,14.088,1.238c3.548,4.231,2.994,10.539-1.238,14.088l-13.31,11.16       C198.553,227.704,196.273,228.471,194.005,228.471z"/>
				</g>
				<g>
					<path style="fill:#5E2A41;" d="M214.385,275.12c-2.854,0-5.687-1.215-7.665-3.571c-3.55-4.23-2.999-10.538,1.231-14.089       l24.319-20.409c4.232-3.549,10.538-2.998,14.089,1.231c3.55,4.23,2.999,10.538-1.231,14.089l-24.319,20.409       C218.935,274.353,216.654,275.12,214.385,275.12z"/>
				</g>
				<g>
					<path style="fill:#5E2A41;" d="M256.775,303.28c-2.853,0-5.686-1.215-7.665-3.571c-3.55-4.23-2.999-10.538,1.232-14.089       l13.309-11.17c4.232-3.55,10.537-2.998,14.089,1.232c3.55,4.23,2.999,10.538-1.232,14.089l-13.309,11.17       C261.325,302.513,259.044,303.28,256.775,303.28z"/>
				</g>
				<g>
					<path style="fill:#5E2A41;" d="M277.155,349.921c-2.854,0-5.686-1.215-7.665-3.572c-3.55-4.23-2.999-10.538,1.232-14.088       l24.234-20.337c3.932-3.372,9.86-3.199,13.58,0.521c3.905,3.905,3.91,10.232,0.005,14.138l-0.01,0.01       c-0.206,0.205-0.42,0.402-0.644,0.589l-24.311,20.4C281.705,349.153,279.423,349.921,277.155,349.921z"/>
				</g>
			</g>
		</g>
	</g>
</g>















</svg>